<svg xmlns="http://www.w3.org/2000/svg" viewBox="0 0 202.83 95.14">
<title>Loyola University New Orleans</title><path fill="#600" d="M17.86 68.87h5.46v-.11c-1.9-.7-1.67-3.41-1.67-5.08v-14c0-1.71-.23-4.42 1.67-5.12v-.11h-7v.11c1.86.7 1.63 3.41 1.63 5.08v11.19a4.91 4.91 0 0 1-.77 3.37 6.56 6.56 0 0 1-5.42 2.6c-3.82 0-5.89-2.3-5.89-7.23v-9.9c0-1.67-.22-4.38 1.63-5.08v-.11h-7v.11C2.25 45.29 2 48 2 49.67v9.9c0 2.67-.08 5.15 1.89 7.3a9.09 9.09 0 0 0 6.71 2.6c2.59 0 5.63-.89 7.26-3zM31.36 49.71l12.72 16.12c1.63 2.12 2.78 3.34 5.41 4.23v-20.8c0-2.08 0-3.56 1.93-4.67v-.11H44.9v.11c2 1.11 1.92 2.59 1.92 4.67v14.05L33.25 46.18l-.52-.74a2.24 2.24 0 0 1-.55-.93h-5.41v.11c1.92 1.11 1.92 2.59 1.92 4.67v14.8c0 2.07 0 3.55-2 4.7v.11h6.56v-.11c-2-1.15-1.93-2.63-1.93-4.7zM55.29 63.68c0 1.67.22 4.42-1.63 5.08v.11h7v-.11c-1.85-.7-1.63-3.41-1.63-5.08v-14c0-1.67-.22-4.42 1.63-5.12v-.11h-7v.11c1.89.7 1.63 3.41 1.63 5.12zM75 64.5l-5.85-16.13a14.83 14.83 0 0 1-1-3.45v-.44h-5.38v.11c1.63 1.26 2.23 3.41 2.89 5.3l5.6 15.17c1.08 2.94 1.93 3.22 4.52 4.94l9.79-25.51h-5.52v.11c2.3.93 1 4 0 6.6zM93.41 57h2.74c1.15 0 2.71 0 3.3 1h.11v-3.92h-.11a3.82 3.82 0 0 1-1.63.22h-4.41v-6.89a20.17 20.17 0 0 1 3.78-.26c1.71 0 3.22.15 4.37 1.48h.12v-4.34h-.12a3.76 3.76 0 0 1-1.74.19H88v.11c1.89.7 1.67 3.41 1.67 5.12v14c0 1.67.22 4.42-1.67 5.08v.11h15.46l1.63-4.9H105a9.28 9.28 0 0 1-6.86 2.19l-4.71-.45zM106.77 44.48v.11c1.89.7 1.63 3.41 1.63 5.12v14c0 1.67.26 4.42-1.63 5.08v.12h7.08v-.12c-1.89-.66-1.67-3.37-1.67-5.08V47.07a18 18 0 0 1 2.52-.29c2.49-.11 4.78 1.44 4.78 4.11 0 3.49-3.44 4.86-6.41 5.3l3.41 5.23L121 67a4.9 4.9 0 0 0 4.31 1.86h3.41a26.06 26.06 0 0 1-6-5.2L117.37 57c3-.7 5.9-3.26 5.9-6.52s-2.71-6-7.68-6zM145 44.7a18.52 18.52 0 0 0-5.53-.82c-4.52 0-9.3 1.78-9.3 6.46 0 7.86 12.75 6.82 12.75 12.6 0 2.6-3.19 3.86-5.3 3.86a12.85 12.85 0 0 1-8.12-3.08l1.07 4.64a19.45 19.45 0 0 0 6.64 1.11c5.79 0 9.94-3.71 9.94-7.68 0-6.86-12.76-6.78-12.76-11.86 0-2.56 2.67-3.38 4.79-3.38a8.48 8.48 0 0 1 5.82 2.34zM150.66 63.68c0 1.67.22 4.42-1.63 5.08v.11h7v-.11c-1.85-.7-1.63-3.41-1.63-5.08v-14c0-1.67-.22-4.42 1.63-5.12v-.11h-7v.11c1.89.7 1.63 3.41 1.63 5.12zM170.05 47.15h3.34c1.22 0 2.71.18 3.19 1.48h.11l1.19-4.41h-.11a4.22 4.22 0 0 1-1.71.26H161.3a6.62 6.62 0 0 1-1.41-.26h-.11l-1.29 4.41h.11a6.45 6.45 0 0 1 4.4-1.48h3.26v16.53c0 1.67.22 4.38-1.63 5.08v.11H172v-.11c-2-1.15-1.93-2.59-1.93-4.7zM192.94 58.2l9.12-13.72h-6.49v.11c2.08 1 1.22 2.78.59 3.71l-4.6 6.89-5.93-9.67a3.16 3.16 0 0 0-2.78-1h-3.37A8.94 8.94 0 0 1 183 48.3l6.15 9.9v5.48c0 1.75.26 4.16-1.55 5.08v.11h7.23v-.11c-1.89-1.37-1.89-2.48-1.89-4.71zM8.36 33.8V9c0-2.56-.4-6.76 2.51-7.85V1H0v.17C2.9 2.23 2.56 6.38 2.56 9v21.44c0 2.56.34 6.77-2.56 7.79v.17h23.38l3-7.56h-.17a14 14 0 0 1-10.11 3.47zM47.11 4.1c9 0 14.27 8 14.27 16.33 0 8.47-5.51 14.79-14.16 14.79-8.93 0-14.56-8.19-14.56-16.16 0-8.59 5.63-15 14.45-15M47.5 0C35.56-.28 26.17 8.77 26.17 19.58c0 11.66 9.5 19.73 20.76 19.73s20.94-8.41 20.94-20C67.87 9.05 59.45 0 47.5 0"/><path fill="#600" d="M83.05 22l14-21h-10v.17C90.28 2.68 89 5.41 88 6.83l-7 10.58-9.15-14.84C71.11 1.37 69.4 1 67.58 1H62.4c2.73 1.48 3.87 3.36 5.41 5.86L77.25 22v8.42c0 2.67.4 6.37-2.39 7.79v.17H86v-.17c-2.9-2.1-2.9-3.81-2.9-7.22z"/><path fill="#600" d="M113.5 4.1c9 0 14.28 8 14.28 16.33 0 8.47-5.52 14.79-14.17 14.79-8.93 0-14.56-8.19-14.56-16.16 0-8.59 5.63-15 14.45-15m.4-4.06C102-.28 92.56 8.77 92.56 19.58c0 11.66 9.5 19.73 20.77 19.73s20.93-8.41 20.93-20C134.26 9.05 125.84 0 113.9 0M143.43 33.8V9c0-2.56-.4-6.76 2.5-7.85V1h-10.86v.17c2.9 1.09 2.56 5.24 2.56 7.85v21.42c0 2.56.34 6.77-2.56 7.79v.17h23.38l3-7.56h-.17a14 14 0 0 1-10.07 3.47zM186.62 20.14h-11.2l5.63-14.33zm1.65 4.21l3.07 8c1.54 4 2 4.61-.79 5.86v.17h11.66v-.17c-3.24-1.65-4.27-4.83-5.57-8.07L184.8 1h-9v.17c2.73.86 1.65 3.25.85 5.29l-9.5 23.73c-1.25 3.24-2.22 6.42-5.52 8.07v.17h10.47v-.17c-2.73-1-2.33-2.67-1.14-5.86l3-8zM5 78.41l10.47 13.26a8.41 8.41 0 0 0 4.45 3.47V78.05c0-1.71 0-2.93 1.58-3.84v-.1h-5.36v.1c1.61.91 1.58 2.13 1.58 3.84v11.54L6.57 75.52l-.43-.61a2.08 2.08 0 0 1-.46-.77H1.24v.1c1.58.91 1.58 2.13 1.58 3.84V90.2c0 1.71 0 2.93-1.62 3.87v.1h5.4v-.1C5 93.13 5 91.91 5 90.2zM28.58 84.38h2.26c.94 0 2.22 0 2.71.86h.09V82h-.09a3.16 3.16 0 0 1-1.34.18h-3.63v-5.66a17.54 17.54 0 0 1 3.11-.21c1.4 0 2.65.12 3.6 1.22h.09V74h-.09a3.16 3.16 0 0 1-1.43.15H24.1v.09c1.56.58 1.38 2.81 1.38 4.21V89.9c0 1.37.18 3.63-1.38 4.17v.1h12.71l1.37-4h-.09A7.62 7.62 0 0 1 32.45 92l-3.87-.36zM52.39 79.69l3.35 10.48c1 3.14 1.22 3 4 4.91l6.43-21H61.5v.1c2.38.82 1.37 3.29.82 5l-3.44 11.21-4.24-13.2a6.18 6.18 0 0 1-.46-3.08h-4.29v.1c1.67.85 1.06 2.83.49 4.69l-3.57 11.58-4.54-14.17a5.4 5.4 0 0 1-.37-2.2h-4.45v.1c1.53 1 2 3 2.53 4.69l3.6 11.24c1 3.14 1.28 2.93 4.05 4.94zM82.63 75.79c4.82 0 7.65 4.3 7.65 8.75s-3 7.92-7.58 7.92c-4.79 0-7.81-4.39-7.81-8.66 0-4.6 3-8 7.74-8m.22-2.19c-6.4-.16-11.43 4.69-11.43 10.48 0 6.25 5.09 10.57 11.12 10.57s11.22-4.51 11.22-10.72A10.51 10.51 0 0 0 82.85 73.6M94.84 74.11v.1c1.55.57 1.34 2.8 1.34 4.2V89.9c0 1.37.21 3.63-1.34 4.17v.1h5.82v-.1c-1.56-.54-1.37-2.77-1.37-4.17V76.25a14.61 14.61 0 0 1 2.07-.25 3.5 3.5 0 0 1 3.93 3.39c0 2.86-2.84 4-5.27 4.35l2.8 4.3 3.72 4.6a4 4 0 0 0 3.53 1.53h2.81a21.53 21.53 0 0 1-4.94-4.27l-4.39-5.52c2.5-.58 4.85-2.68 4.85-5.36s-2.23-4.91-6.31-4.91zM118.68 91.7V78.41c0-1.37-.21-3.63 1.34-4.2v-.1h-5.82v.1c1.56.57 1.37 2.8 1.37 4.2V89.9c0 1.37.19 3.63-1.37 4.17v.1h12.53l1.58-4.06h-.09a7.49 7.49 0 0 1-5.39 1.89zM133.59 84.38h2.25c.95 0 2.23 0 2.72.86h.09V82h-.09a3.19 3.19 0 0 1-1.34.18h-3.63v-5.66a17.41 17.41 0 0 1 3.11-.21c1.4 0 2.65.12 3.59 1.22h.09V74h-.09a3.13 3.13 0 0 1-1.43.15h-9.75v.09c1.55.58 1.37 2.81 1.37 4.21V89.9c0 1.37.18 3.63-1.37 4.17v.1h12.71l1.37-4h-.09a7.63 7.63 0 0 1-5.64 1.8l-3.87-.36zM157.83 84.38h-6l3-7.68zm.89 2.26l1.64 4.3c.83 2.13 1.07 2.46-.42 3.13v.1h6.24v-.1c-1.73-.88-2.28-2.59-3-4.32l-6.34-15.64H152v.1c1.47.45.89 1.73.46 2.83l-5.09 12.71c-.67 1.73-1.19 3.44-2.95 4.32v.1h5.6v-.1c-1.46-.54-1.25-1.43-.61-3.13l1.59-4.3zM171.74 78.41l10.46 13.26a8.43 8.43 0 0 0 4.44 3.47V78.05c0-1.71 0-2.93 1.59-3.84v-.1h-5.36v.1c1.61.91 1.58 2.13 1.58 3.84v11.54L173.3 75.52l-.43-.61a2.08 2.08 0 0 1-.46-.77H168v.1c1.59.91 1.59 2.13 1.59 3.84V90.2c0 1.71 0 2.93-1.62 3.87v.1h5.4v-.1c-1.62-.94-1.59-2.16-1.59-3.87zM201.06 74.3a15.22 15.22 0 0 0-4.54-.67c-3.72 0-7.65 1.46-7.65 5.3 0 6.46 10.48 5.61 10.48 10.36 0 2.13-2.62 3.17-4.36 3.17a10.58 10.58 0 0 1-6.67-2.53l.88 3.81a15.81 15.81 0 0 0 5.46.91c4.75 0 8.17-3 8.17-6.3 0-5.64-10.49-5.58-10.49-9.76 0-2.1 2.2-2.77 3.93-2.77a6.94 6.94 0 0 1 4.79 1.92z"/></svg>